<svg xmlns="http://www.w3.org/2000/svg" viewBox="0 0 494.28 120.16"><title>SOFTWARE</title><rect x="14.57" y="25.08" width="479.72" height="72" rx="12.02" ry="12.02" style="fill:#6d6d6d;opacity:0.72"/><path d="M101.06,87.32a1.33,1.33,0,0,0-.31,0V88H101c.31,0,.55-.1.55-.35S101.41,87.32,101.06,87.32Z" style="fill:#fff"/><path d="M60.08,0a60.08,60.08,0,1,0,60.08,60.08A60.08,60.08,0,0,0,60.08,0ZM74.17,30.32l.28-.51H96l.6,5-.74.26a36.74,36.74,0,0,1-6.34,1.39V52.09a8.68,8.68,0,0,0-9.21.14V36.46L74,35.26l-.21-.48a5.55,5.55,0,0,1-.2-2A5.69,5.69,0,0,1,74.17,30.32ZM90.84,59.6A5.81,5.81,0,1,1,85,53.8,5.81,5.81,0,0,1,90.84,59.6ZM48.12,70.08a58.44,58.44,0,0,1-9-.81V83.71l2.56.25c2.21.21,4.7.45,6.1.7l.68.12.12.68a12.47,12.47,0,0,1,0,4.06l-.14.82h-25L23,84.65l.84-.17c1.48-.3,3-.46,4.53-.61l1.44-.15V36.31c-2-.26-3.81-.54-5.74-1l-.72-.16,0-.74a11,11,0,0,1,.52-3.95l.21-.7H48.93c7.22,0,12.13,1.28,15.46,4,3.63,3,5.39,7.85,5.39,14.82C69.77,63.88,63.5,70.08,48.12,70.08ZM96.56,89.84l-.28.51H73.49L73,85l.73-.25a33.8,33.8,0,0,1,6.62-1.23V67a8.69,8.69,0,0,0,9.21.14v16.5l7.24,1.32.21.49a4.43,4.43,0,0,1,.2,1.64A7.34,7.34,0,0,1,96.56,89.84Zm4.56.7a2.4,2.4,0,1,1,0-4.8,2.4,2.4,0,1,1,0,4.8Z" style="fill:#fff"/><path d="M44.69,36.79H43.26L39,36.86V63.28l5.46.31c.79,0,1.55.07,2.27.07h0c5.43,0,8.88-1.25,10.88-3.95,1.73-2.35,2.47-5.78,2.47-11.48C60.06,40.45,58.54,36.79,44.69,36.79Z" style="fill:#fff"/><path d="M101.12,86.23a1.9,1.9,0,0,0,0,3.81A1.83,1.83,0,0,0,103,88.15,1.84,1.84,0,0,0,101.12,86.23Zm.57,3.15a2,2,0,0,1-.19-.58c0-.26-.19-.38-.49-.38h-.26v1h-.55V87a4.83,4.83,0,0,1,.92-.07,1.48,1.48,0,0,1,.83.17.66.66,0,0,1,.23.52.61.61,0,0,1-.49.55v0a.7.7,0,0,1,.44.58,1.81,1.81,0,0,0,.17.6Z" style="fill:#fff"/><text transform="translate(140.72 79.19)" style="font-size:53.30340576171875px;fill:#fff;font-family:Montserrat-Light, Montserrat;letter-spacing:0.07498714679448497em">SOFT<tspan x="151.65" y="0" style="letter-spacing:0.029001869869452655em">W</tspan><tspan x="207.4" y="0">ARE</tspan></text></svg>